<?xml version="1.0" encoding="utf-8"?>
<!-- Generator: Adobe Illustrator 15.0.0, SVG Export Plug-In . SVG Version: 6.00 Build 0)  -->
<!DOCTYPE svg PUBLIC "-//W3C//DTD SVG 1.1//EN" "http://www.w3.org/Graphics/SVG/1.1/DTD/svg11.dtd">
<svg version="1.1" id="Layer_1" xmlns="http://www.w3.org/2000/svg" xmlns:xlink="http://www.w3.org/1999/xlink" x="0px" y="0px"
	  viewBox="0 0 500 500" enable-background="new 0 0 500 500" xml:space="preserve">
<g>
	<path fill="#ED1C24" d="M386.104,340.263l9.947,111.414c-27.854,11.491-62.784,17.242-104.781,17.242
		c-42.008,0-75.716-4.424-101.135-13.263c-25.429-8.839-45.427-22.766-60.017-41.78c-14.59-19.005-24.766-41.335-30.506-66.981
		c-5.751-25.636-8.621-57.25-8.621-94.834c0-37.573,2.87-69.302,8.621-95.166c5.741-25.864,15.917-48.298,30.506-67.313
		c28.289-36.692,80.244-55.043,155.846-55.043c16.797,0,36.578,1.658,59.354,4.974c22.766,3.316,39.677,7.409,50.732,12.269
		l-19.895,101.466c-28.745-6.186-55.044-9.285-78.918-9.285c-23.875,0-40.454,2.218-49.739,6.632
		c-9.284,4.425-13.927,13.264-13.927,26.527v173.752c17.243,3.544,34.703,5.306,52.391,5.306
		C323.537,356.18,356.924,350.874,386.104,340.263z"/>
</g>
</svg>
