<?xml version="1.0" encoding="utf-8"?>
<!-- Generator: Adobe Illustrator 15.0.0, SVG Export Plug-In . SVG Version: 6.00 Build 0)  -->
<!DOCTYPE svg PUBLIC "-//W3C//DTD SVG 1.1//EN" "http://www.w3.org/Graphics/SVG/1.1/DTD/svg11.dtd">
<svg version="1.1" id="Layer_1" xmlns="http://www.w3.org/2000/svg" xmlns:xlink="http://www.w3.org/1999/xlink" x="0px" y="0px"
	  viewBox="0 0 500 292.614" enable-background="new 0 0 500 292.614" xml:space="preserve">
<g>
	<polygon fill="#FFFFFF" points="148.213,145.989 131.111,12.996 127.475,12.996 146.362,161.516 	"/>
	<polygon fill="#FFFFFF" points="177.472,232.479 126.189,232.479 126.849,237.804 182.333,237.804 211.977,12.996 206.413,12.996 	
		"/>
	<polygon fill="#FFFFFF" points="91.601,232.479 38.356,232.479 39.059,237.804 96.445,237.804 106.882,153.445 104.131,131.208 	
		"/>
	<polygon fill="#FFFFFF" points="66.529,145.292 50.081,12.996 46.521,12.996 64.847,160.389 	"/>
	<polygon fill="#FFFFFF" points="264.106,232.479 233.909,232.479 233.909,237.804 267.951,237.804 267.951,203.762 
		264.106,203.762 	"/>
	<polygon fill="#FFFFFF" points="264.745,99.08 260.118,182.701 237.468,182.701 237.763,188.026 264.098,188.026 268.594,106.772 
		268.594,12.996 264.749,12.996 	"/>
	<rect x="325.765" y="12.996" fill="#FFFFFF" width="3.845" height="182.356"/>
	<polygon fill="#FFFFFF" points="367.224,232.479 294.282,232.479 294.282,237.804 371.068,237.804 371.068,205.689 
		367.224,205.689 	"/>
	<path fill="#FFFFFF" d="M421.561,45.111h19.912c2.378,0,4.541,0.278,6.495,0.837c-2.937-5.206-7.925-6.163-12.846-6.163h-17.406
		v155.567h3.845V45.111z"/>
	<path fill="#FFFFFF" d="M486.949,34.362c2.638,7.509,3.99,16.299,3.99,26.362v113.69c0,37.986-19.079,58.065-55.176,58.065h-49.53
		v5.325h55.882c35.327,0,52.669-19.591,52.669-55.56V68.555C494.784,54.641,492.177,43.188,486.949,34.362z"/>
	<polygon fill="#FFFFFF" points="86.258,227.467 104.131,107.676 104.131,107.676 122.005,227.467 172.164,227.467 201.147,7.67 
		170.66,7.67 149.377,186.233 143.245,186.233 119.592,7.67 89.52,7.67 68.067,184.948 61.937,184.948 39.895,7.67 5.216,7.67 
		34.197,227.467 	"/>
	<polygon fill="#FFFFFF" points="255.376,177.688 259.736,98.872 259.736,7.67 229.421,7.67 229.421,98.872 233.783,177.688 	"/>
	<rect x="230.064" y="198.437" fill="#FFFFFF" width="29.031" height="29.03"/>
	<polygon fill="#FFFFFF" points="362.212,227.467 362.212,200.364 320.753,200.364 320.753,7.67 290.438,7.67 290.438,227.467 	"/>
	<path fill="#FFFFFF" d="M435.764,227.467c33.287,0,50.163-17.85,50.163-53.054V60.724c0-35.204-16.876-53.054-50.163-53.054
		h-53.375v219.797H435.764z M412.704,34.773h22.418c13.596,0,20.49,8.191,20.49,24.345v116.901c0,16.153-6.895,24.345-20.49,24.345
		h-22.418V34.773z"/>
</g>
<g>
	<path fill="#FFFFFF" d="M157.507,285.906c-6.885,0-8.799-4.9-8.799-11.785v-9.139c0-6.885,1.914-11.768,8.799-11.768
		c6.456,0,8.53,4.186,8.53,10.623h-4.578c0-3.898-0.125-6.867-3.952-6.867c-3.827,0-4.221,2.969-4.221,6.867v11.445
		c0,3.505,0.733,6.867,4.221,6.867c3.505,0,3.952-3.362,3.952-6.867v-1.145h4.578v1.145
		C166.037,281.649,163.927,285.906,157.507,285.906z"/>
	<path fill="#FFFFFF" d="M186.172,263.659v11.624c0,6.438-2.325,10.623-8.834,10.623c-6.563,0-8.834-4.096-8.834-10.623v-11.624
		c0-6.527,2.271-10.444,8.834-10.444C183.847,253.214,186.172,257.22,186.172,263.659z M173.082,262.514v13.913
		c0,3.434,0.823,5.723,4.256,5.723s4.256-2.289,4.256-5.723v-13.913c0-3.434-0.822-5.544-4.256-5.544
		S173.082,259.081,173.082,262.514z"/>
	<path fill="#FFFFFF" d="M194.754,264.267v21.316h-4.578v-32.047h3.434l8.012,19.814v-19.814h4.578v32.047h-3.255L194.754,264.267z"
		/>
	<path fill="#FFFFFF" d="M219.003,285.906c-6.885,0-8.799-4.9-8.799-11.785v-9.139c0-6.885,1.914-11.768,8.799-11.768
		c6.456,0,8.53,4.186,8.53,10.623h-4.578c0-3.898-0.125-6.867-3.952-6.867c-3.827,0-4.221,2.969-4.221,6.867v11.445
		c0,3.505,0.733,6.867,4.221,6.867c3.505,0,3.952-3.362,3.952-6.867v-1.145h4.578v1.145
		C227.533,281.649,225.423,285.906,219.003,285.906z"/>
	<path fill="#FFFFFF" d="M235.15,270.705v11.445h8.012v3.434h-12.59v-32.047h12.59v3.434h-8.012v10.301h5.723v3.434H235.15z"/>
	<path fill="#FFFFFF" d="M253.979,270.705h-3.434v14.879h-4.578v-32.047h8.012c5.723,0,8.012,3.434,8.012,9.156
		C261.991,267.933,259.147,270.705,253.979,270.705z M251.69,256.97h-1.145v10.301h1.145c3.862,0,5.723-0.751,5.723-4.578
		C257.413,258.24,256.232,256.97,251.69,256.97z"/>
	<path fill="#FFFFFF" d="M278.246,257.614h-5.723v27.97h-4.578v-27.97h-5.723v-4.077h16.023V257.614z"/>
	<path fill="#FFFFFF" d="M293.73,256.97c-2.736,0-3.434,2.933-3.434,5.723v1.145h-4.578v-1.145c0-5.74,2.271-9.479,8.012-9.479
		c5.275,0,8.012,3.13,8.012,8.334c0,4.148-1.663,6.635-3.434,9.156l-8.012,10.301h11.445v4.578h-16.041v-4.578l8.029-11.445
		c1.699-2.414,3.434-4.436,3.434-8.012C297.164,259.188,296.092,256.97,293.73,256.97z"/>
	<path fill="#FFFFFF" d="M312.399,285.906c-5.364,0-8.012-3.971-8.012-9.479v-13.734c0-5.669,2.486-9.479,8.012-9.479
		c5.49,0,8.012,3.827,8.012,9.479v13.734C320.411,281.971,317.801,285.906,312.399,285.906z M312.399,282.15
		c2.808,0,3.434-2.951,3.434-5.723v-13.734c0-2.915-0.5-5.723-3.434-5.723c-2.933,0-3.434,2.808-3.434,5.723v13.734
		C308.966,279.199,309.628,282.15,312.399,282.15z"/>
	<path fill="#FFFFFF" d="M327.85,253.537h3.434v32.047h-4.578v-25.18h-3.434v-3.434C325.167,256.291,326.955,255.271,327.85,253.537
		z"/>
	<path fill="#FFFFFF" d="M335.056,277.357v-5.097l8.012-18.741h5.723v19.511h3.541v4.327h-3.541v8.227h-4.578v-8.227H335.056z
		 M344.212,259.259l-4.578,13.771h4.578V259.259z"/>
</g>
</svg>
